G04*
G04 #@! TF.GenerationSoftware,Altium Limited,Altium Designer,21.2.2 (38)*
G04*
G04 Layer_Color=8388736*
%FSLAX24Y24*%
%MOIN*%
G70*
G04*
G04 #@! TF.SameCoordinates,E4E59F50-D763-4BE6-A9F8-BCED566C8010*
G04*
G04*
G04 #@! TF.FilePolarity,Negative*
G04*
G01*
G75*
%ADD11C,0.0059*%
G04:AMPARAMS|DCode=14|XSize=70.9mil|YSize=55.1mil|CornerRadius=4.4mil|HoleSize=0mil|Usage=FLASHONLY|Rotation=0.000|XOffset=0mil|YOffset=0mil|HoleType=Round|Shape=RoundedRectangle|*
%AMROUNDEDRECTD14*
21,1,0.0709,0.0463,0,0,0.0*
21,1,0.0620,0.0551,0,0,0.0*
1,1,0.0088,0.0310,-0.0231*
1,1,0.0088,-0.0310,-0.0231*
1,1,0.0088,-0.0310,0.0231*
1,1,0.0088,0.0310,0.0231*
%
%ADD14ROUNDEDRECTD14*%
G04:AMPARAMS|DCode=15|XSize=42.3mil|YSize=45.3mil|CornerRadius=12.5mil|HoleSize=0mil|Usage=FLASHONLY|Rotation=90.000|XOffset=0mil|YOffset=0mil|HoleType=Round|Shape=RoundedRectangle|*
%AMROUNDEDRECTD15*
21,1,0.0423,0.0202,0,0,90.0*
21,1,0.0172,0.0453,0,0,90.0*
1,1,0.0251,0.0101,0.0086*
1,1,0.0251,0.0101,-0.0086*
1,1,0.0251,-0.0101,-0.0086*
1,1,0.0251,-0.0101,0.0086*
%
%ADD15ROUNDEDRECTD15*%
%ADD16R,0.0394X0.0394*%
G04:AMPARAMS|DCode=17|XSize=39.4mil|YSize=43.3mil|CornerRadius=4.3mil|HoleSize=0mil|Usage=FLASHONLY|Rotation=180.000|XOffset=0mil|YOffset=0mil|HoleType=Round|Shape=RoundedRectangle|*
%AMROUNDEDRECTD17*
21,1,0.0394,0.0348,0,0,180.0*
21,1,0.0309,0.0433,0,0,180.0*
1,1,0.0085,-0.0154,0.0174*
1,1,0.0085,0.0154,0.0174*
1,1,0.0085,0.0154,-0.0174*
1,1,0.0085,-0.0154,-0.0174*
%
%ADD17ROUNDEDRECTD17*%
%ADD18R,0.0394X0.0394*%
G04:AMPARAMS|DCode=19|XSize=39.9mil|YSize=43.9mil|CornerRadius=4.3mil|HoleSize=0mil|Usage=FLASHONLY|Rotation=0.000|XOffset=0mil|YOffset=0mil|HoleType=Round|Shape=RoundedRectangle|*
%AMROUNDEDRECTD19*
21,1,0.0399,0.0354,0,0,0.0*
21,1,0.0314,0.0439,0,0,0.0*
1,1,0.0085,0.0157,-0.0177*
1,1,0.0085,-0.0157,-0.0177*
1,1,0.0085,-0.0157,0.0177*
1,1,0.0085,0.0157,0.0177*
%
%ADD19ROUNDEDRECTD19*%
%ADD20R,0.1386X0.0654*%
G04:AMPARAMS|DCode=21|XSize=17.7mil|YSize=59.1mil|CornerRadius=5.9mil|HoleSize=0mil|Usage=FLASHONLY|Rotation=270.000|XOffset=0mil|YOffset=0mil|HoleType=Round|Shape=RoundedRectangle|*
%AMROUNDEDRECTD21*
21,1,0.0177,0.0472,0,0,270.0*
21,1,0.0059,0.0591,0,0,270.0*
1,1,0.0118,-0.0236,-0.0030*
1,1,0.0118,-0.0236,0.0030*
1,1,0.0118,0.0236,0.0030*
1,1,0.0118,0.0236,-0.0030*
%
%ADD21ROUNDEDRECTD21*%
G04:AMPARAMS|DCode=22|XSize=31.5mil|YSize=47.2mil|CornerRadius=4.2mil|HoleSize=0mil|Usage=FLASHONLY|Rotation=0.000|XOffset=0mil|YOffset=0mil|HoleType=Round|Shape=RoundedRectangle|*
%AMROUNDEDRECTD22*
21,1,0.0315,0.0389,0,0,0.0*
21,1,0.0231,0.0472,0,0,0.0*
1,1,0.0083,0.0116,-0.0194*
1,1,0.0083,-0.0116,-0.0194*
1,1,0.0083,-0.0116,0.0194*
1,1,0.0083,0.0116,0.0194*
%
%ADD22ROUNDEDRECTD22*%
G04:AMPARAMS|DCode=23|XSize=39.4mil|YSize=43.3mil|CornerRadius=4.3mil|HoleSize=0mil|Usage=FLASHONLY|Rotation=270.000|XOffset=0mil|YOffset=0mil|HoleType=Round|Shape=RoundedRectangle|*
%AMROUNDEDRECTD23*
21,1,0.0394,0.0348,0,0,270.0*
21,1,0.0309,0.0433,0,0,270.0*
1,1,0.0085,-0.0174,-0.0154*
1,1,0.0085,-0.0174,0.0154*
1,1,0.0085,0.0174,0.0154*
1,1,0.0085,0.0174,-0.0154*
%
%ADD23ROUNDEDRECTD23*%
%ADD24O,0.0630X0.0591*%
G04:AMPARAMS|DCode=25|XSize=74.8mil|YSize=84.6mil|CornerRadius=0mil|HoleSize=0mil|Usage=FLASHONLY|Rotation=315.000|XOffset=0mil|YOffset=0mil|HoleType=Round|Shape=Round|*
%AMOVALD25*
21,1,0.0098,0.0748,0.0000,0.0000,45.0*
1,1,0.0748,-0.0035,-0.0035*
1,1,0.0748,0.0035,0.0035*
%
%ADD25OVALD25*%

G04:AMPARAMS|DCode=26|XSize=74.8mil|YSize=84.6mil|CornerRadius=0mil|HoleSize=0mil|Usage=FLASHONLY|Rotation=225.000|XOffset=0mil|YOffset=0mil|HoleType=Round|Shape=Round|*
%AMOVALD26*
21,1,0.0098,0.0748,0.0000,0.0000,315.0*
1,1,0.0748,-0.0035,0.0035*
1,1,0.0748,0.0035,-0.0035*
%
%ADD26OVALD26*%

%ADD27O,0.0748X0.0846*%
D11*
X11841Y5930D02*
G03*
X11841Y5930I-5906J0D01*
G01*
D14*
X6758Y600D02*
D03*
X5656D02*
D03*
D15*
X9540Y2626D02*
D03*
X9540Y2008D02*
D03*
D16*
X8890D02*
D03*
Y2598D02*
D03*
X3800Y6867D02*
D03*
Y6277D02*
D03*
D17*
X4840Y5800D02*
D03*
X4249D02*
D03*
X3340Y3800D02*
D03*
X2749D02*
D03*
D18*
X4239Y5334D02*
D03*
X4830D02*
D03*
X4856Y6720D02*
D03*
X4266D02*
D03*
X6191D02*
D03*
X5600D02*
D03*
X7525D02*
D03*
X6934D02*
D03*
D19*
X5006Y7280D02*
D03*
X4266D02*
D03*
X4636Y8070D02*
D03*
X6340Y7280D02*
D03*
X5600D02*
D03*
X5970Y8070D02*
D03*
X7674Y7280D02*
D03*
X6934D02*
D03*
X7304Y8070D02*
D03*
D20*
X3714Y3150D02*
D03*
Y1717D02*
D03*
D21*
X5458Y4566D02*
D03*
Y4822D02*
D03*
Y5078D02*
D03*
Y5334D02*
D03*
Y5590D02*
D03*
Y5846D02*
D03*
Y6102D02*
D03*
Y4310D02*
D03*
Y4054D02*
D03*
Y3798D02*
D03*
X7722D02*
D03*
Y4054D02*
D03*
Y4310D02*
D03*
Y4566D02*
D03*
Y4822D02*
D03*
Y5078D02*
D03*
Y5334D02*
D03*
Y5590D02*
D03*
Y5846D02*
D03*
Y6102D02*
D03*
D22*
X3340Y5578D02*
D03*
X2966Y4515D02*
D03*
X3714D02*
D03*
D23*
X4290D02*
D03*
Y3924D02*
D03*
X4840Y4515D02*
D03*
Y3924D02*
D03*
D24*
X9540Y3609D02*
D03*
X9540Y4200D02*
D03*
X9540Y4791D02*
D03*
X9540Y5381D02*
D03*
D25*
X7908Y10042D02*
D03*
X8604Y9346D02*
D03*
X9300Y8650D02*
D03*
X9996Y7954D02*
D03*
D26*
X4246Y9746D02*
D03*
X3550Y9050D02*
D03*
X2854Y8354D02*
D03*
X2158Y7658D02*
D03*
D27*
X7624Y2447D02*
D03*
X6640D02*
D03*
X5656D02*
D03*
M02*
