M48
;Layer_Color=9474304
;FILE_FORMAT=2:5
INCH,LZ
;TYPE=PLATED
T1F00S00C0.01181
T2F00S00C0.03000
T3F00S00C0.03740
%
T01
X00234Y0038
Y00416
Y004515
X00384Y00545
Y0058
X0038Y0073068
Y0076569
X005304Y0083192
X00597Y0076468
X0073043
X0080819Y0076569
Y0073068
X007193Y0051173
X0071982Y0045661
Y0042161
X00598Y0051173
X00484Y00344
Y00309
X0065831Y0011024
X0069331
X00844Y0024234
Y0027734
X00525Y0107
T02
X00954Y0036094
X00954Y0042
X00954Y0047905
X00954Y0053811
T03
X0056558Y0024472
X00664
X0076243
X008604Y009346
X0093Y00865
X009996Y007954
X0079081Y0100419
X004246Y009746
X00355Y00905
X002854Y008354
X0021581Y0076581
M30
